<svg width="32" height="32" viewBox="0 0 32 32" fill="none" xmlns="http://www.w3.org/2000/svg">
  <!-- Apple body -->
  <path d="M16 2C12 2 10 4 10 8C10 12 12 14 16 14C20 14 22 12 22 8C22 4 20 2 16 2Z" fill="#FF6B6B"/>
  <!-- Apple stem -->
  <path d="M15 2L17 2L16 0L15 2Z" fill="#8B4513"/>
  <!-- Apple leaf -->
  <path d="M17 2C18 2 19 3 19 4C19 5 18 6 17 6C16 6 15 5 15 4C15 3 16 2 17 2Z" fill="#4CAF50"/>
  <!-- Apple highlight -->
  <ellipse cx="13" cy="6" rx="2" ry="1" fill="#FFB3B3" opacity="0.6"/>
</svg>
